<svg xmlns="http://www.w3.org/2000/svg" width="16" height="16" viewBox="0 0 16 16" fill="none">
  <path opacity="0.2" d="M13 9C13 10.3261 12.4732 11.5979 11.5355 12.5355C10.5979 13.4732 9.32608 14 8 14C6.67392 14 5.40215 13.4732 4.46447 12.5355C3.52678 11.5979 3 10.3261 3 9C3 7.08938 3.90125 5.35875 4.9375 4L7 6L8.64188 1.5C9.99125 2.62 13 5.50938 13 9Z" fill="#D97C00"/>
  <path d="M11.4931 9.58365C11.3635 10.3078 11.0151 10.9749 10.4948 11.4951C9.9745 12.0153 9.30734 12.3635 8.58313 12.493C8.55563 12.4974 8.52784 12.4997 8.5 12.4999C8.37458 12.4999 8.25375 12.4527 8.16148 12.3678C8.06921 12.2828 8.01223 12.1663 8.00185 12.0413C7.99146 11.9163 8.02843 11.792 8.10542 11.693C8.18242 11.594 8.2938 11.5275 8.4175 11.5068C9.45312 11.3324 10.3319 10.4536 10.5075 9.41615C10.5297 9.28536 10.603 9.16876 10.7112 9.09199C10.8193 9.01521 10.9536 8.98456 11.0844 9.00677C11.2152 9.02899 11.3318 9.10224 11.4085 9.21043C11.4853 9.31861 11.516 9.45286 11.4937 9.58365H11.4931ZM13.5 8.9999C13.5 10.4586 12.9205 11.8575 11.8891 12.889C10.8576 13.9204 9.45869 14.4999 8 14.4999C6.54131 14.4999 5.14236 13.9204 4.11091 12.889C3.07946 11.8575 2.5 10.4586 2.5 8.9999C2.5 7.2549 3.1875 5.47052 4.54125 3.69677C4.5841 3.64061 4.63837 3.59416 4.70047 3.56049C4.76258 3.52683 4.83112 3.5067 4.90157 3.50145C4.97201 3.49619 5.04278 3.50592 5.10919 3.53C5.17561 3.55408 5.23616 3.59196 5.28687 3.64115L6.79437 5.10427L8.16938 1.32865C8.19685 1.25334 8.24202 1.18575 8.30108 1.13156C8.36015 1.07737 8.43138 1.03818 8.50877 1.01728C8.58615 0.996391 8.66743 0.994409 8.74574 1.01151C8.82406 1.0286 8.89711 1.06428 8.95875 1.11552C10.3256 2.2499 13.5 5.28427 13.5 8.9999ZM12.5 8.9999C12.5 6.11927 10.2631 3.6299 8.86187 2.35427L7.47 6.17115C7.44143 6.24954 7.3937 6.31954 7.33116 6.37477C7.26861 6.42999 7.19324 6.46869 7.11191 6.48733C7.03059 6.50596 6.94589 6.50395 6.86553 6.48148C6.78518 6.459 6.71173 6.41678 6.65188 6.35865L5.00375 4.7599C4.00562 6.20052 3.5 7.6249 3.5 8.9999C3.5 10.1934 3.97411 11.338 4.81802 12.1819C5.66193 13.0258 6.80653 13.4999 8 13.4999C9.19347 13.4999 10.3381 13.0258 11.182 12.1819C12.0259 11.338 12.5 10.1934 12.5 8.9999Z" fill="#D97C00"/>
</svg>