<svg xmlns="http://www.w3.org/2000/svg" width="17" height="16" viewBox="0 0 17 16" fill="none">
  <g clip-path="url(#clip0_2568_4943)">
    <path d="M4.13151 7.33317V9.99984M12.1315 5.99984V8.6665M11.4648 2.6665C13.0973 2.6665 13.9803 2.91634 14.4196 3.11013C14.4781 3.13594 14.5073 3.14884 14.5918 3.22942C14.6424 3.27772 14.7348 3.41943 14.7585 3.48523C14.7982 3.595 14.7982 3.655 14.7982 3.775V10.9406C14.7982 11.5464 14.7982 11.8494 14.7073 12.0051C14.6149 12.1635 14.5258 12.2371 14.3528 12.298C14.1828 12.3578 13.8395 12.2918 13.153 12.1599C12.6724 12.0676 12.1025 11.9998 11.4648 11.9998C9.46484 11.9998 7.46484 13.3332 4.79818 13.3332C3.16571 13.3332 2.28275 13.0833 1.84343 12.8895C1.78493 12.8637 1.75567 12.8508 1.67124 12.7703C1.62063 12.722 1.52826 12.5802 1.50449 12.5144C1.46484 12.4047 1.46484 12.3447 1.46484 12.2247L1.46484 5.05907C1.46484 4.45323 1.46484 4.15031 1.5557 3.9946C1.64811 3.83621 1.73724 3.76258 1.91022 3.70171C2.08027 3.64187 2.42353 3.70783 3.11006 3.83974C3.59059 3.93206 4.1605 3.99984 4.79818 3.99984C6.79818 3.99984 8.79818 2.6665 11.4648 2.6665ZM9.79818 7.99984C9.79818 8.92031 9.05199 9.6665 8.13151 9.6665C7.21104 9.6665 6.46484 8.92031 6.46484 7.99984C6.46484 7.07936 7.21104 6.33317 8.13151 6.33317C9.05199 6.33317 9.79818 7.07936 9.79818 7.99984Z" stroke="#506B6A" stroke-linecap="round" stroke-linejoin="round"/>
  </g>
  <defs>
    <clipPath id="clip0_2568_4943">
      <rect width="16" height="16" fill="white" transform="translate(0.130859)"/>
    </clipPath>
  </defs>
</svg>