<svg xmlns="http://www.w3.org/2000/svg" width="16" height="16" viewBox="0 0 16 16" fill="none">
  <path d="M14.4325 13.25C13.4807 11.6044 12.0138 10.4244 10.3019 9.86499C11.1487 9.3609 11.8066 8.59279 12.1746 7.67861C12.5425 6.76444 12.6002 5.75474 12.3388 4.80459C12.0774 3.85444 11.5113 3.01636 10.7275 2.41907C9.94372 1.82178 8.9855 1.49829 8.00005 1.49829C7.01459 1.49829 6.05638 1.82178 5.27256 2.41907C4.48875 3.01636 3.92267 3.85444 3.66126 4.80459C3.39985 5.75474 3.45756 6.76444 3.82554 7.67861C4.19351 8.59279 4.8514 9.3609 5.69817 9.86499C3.9863 10.4237 2.51942 11.6037 1.56755 13.25C1.53264 13.3069 1.50949 13.3702 1.49945 13.4363C1.48942 13.5023 1.49271 13.5696 1.50912 13.6343C1.52554 13.6991 1.55476 13.7598 1.59504 13.8131C1.63533 13.8663 1.68587 13.911 1.74369 13.9444C1.8015 13.9778 1.86542 13.9992 1.93168 14.0075C1.99793 14.0158 2.06517 14.0108 2.12944 13.9926C2.1937 13.9745 2.25369 13.9437 2.30585 13.902C2.35802 13.8604 2.40131 13.8087 2.43317 13.75C3.61067 11.715 5.69192 10.5 8.00005 10.5C10.3082 10.5 12.3894 11.715 13.5669 13.75C13.5988 13.8087 13.6421 13.8604 13.6942 13.902C13.7464 13.9437 13.8064 13.9745 13.8707 13.9926C13.9349 14.0108 14.0022 14.0158 14.0684 14.0075C14.1347 13.9992 14.1986 13.9778 14.2564 13.9444C14.3142 13.911 14.3648 13.8663 14.4051 13.8131C14.4453 13.7598 14.4746 13.6991 14.491 13.6343C14.5074 13.5696 14.5107 13.5023 14.5006 13.4363C14.4906 13.3702 14.4675 13.3069 14.4325 13.25ZM4.50005 5.99999C4.50005 5.30776 4.70532 4.63107 5.0899 4.0555C5.47449 3.47992 6.02111 3.03132 6.66066 2.76641C7.3002 2.50151 8.00393 2.43219 8.68286 2.56724C9.3618 2.70229 9.98544 3.03563 10.4749 3.52512C10.9644 4.0146 11.2977 4.63824 11.4328 5.31718C11.5678 5.99611 11.4985 6.69984 11.2336 7.33938C10.9687 7.97892 10.5201 8.52555 9.94454 8.91014C9.36897 9.29472 8.69228 9.49999 8.00005 9.49999C7.07209 9.499 6.18243 9.12993 5.52627 8.47377C4.87011 7.81761 4.50104 6.92794 4.50005 5.99999Z" fill="#506B6A"/>
</svg>