<svg width="152" height="156" viewBox="0 0 152 156" fill="none" xmlns="http://www.w3.org/2000/svg">
<g filter="url(#filter0_d_2967_4217)">
<rect x="36.7266" y="94.3374" width="43.4385" height="43.6623" rx="3.62789" fill="white" shape-rendering="crispEdges"/>
<path d="M58.4646 124.668L58.4304 124.639C57.4834 123.396 56.6 122.102 55.7838 120.762C55.4127 120.112 55.1697 119.607 55.218 119.48C55.339 119.139 57.4988 118.953 58.1593 119.262C58.3611 119.353 58.3558 119.479 58.3558 119.551C58.3558 119.862 58.3409 120.698 58.3409 120.698C58.3409 120.782 58.3725 120.861 58.4288 120.92C58.485 120.979 58.5614 121.012 58.6409 121.012C58.7205 121.012 58.7968 120.979 58.8531 120.92C58.9093 120.861 58.9409 120.782 58.9409 120.698V118.616C58.9409 118.433 58.7523 118.39 58.7164 118.382C58.3699 118.382 57.6637 118.382 56.9102 118.382C55.2434 118.382 54.8697 118.454 54.5864 118.26C53.9723 117.841 52.9688 115.017 52.946 113.428C52.9126 111.186 54.1846 109.245 55.9768 108.284C56.771 107.867 57.6501 107.656 58.5392 107.669C59.4283 107.683 60.3011 107.92 61.0834 108.361C61.8658 108.802 62.5345 109.434 63.0326 110.203C63.5308 110.972 63.8436 111.855 63.9447 112.778C63.9442 112.78 63.9442 112.783 63.9447 112.785C64.0017 113.48 60.3322 113.628 59.6068 113.426C59.566 113.412 59.5306 113.385 59.5055 113.349C59.4804 113.313 59.467 113.269 59.4673 113.225C59.4673 112.696 59.4629 111.21 59.4629 111.21C59.4628 111.169 59.4549 111.128 59.4397 111.09C59.4245 111.052 59.4023 111.018 59.3744 110.989C59.3465 110.96 59.3133 110.937 59.2769 110.921C59.2404 110.905 59.2014 110.897 59.162 110.898C59.0824 110.898 59.0061 110.931 58.9499 110.989C58.8936 111.048 58.862 111.128 58.862 111.211L58.8681 113.951C58.869 114.005 58.8874 114.057 58.9205 114.098C58.9535 114.139 58.9991 114.167 59.0497 114.178H61.3305C62.5455 114.178 63.056 114.324 63.3955 114.595C63.621 114.778 63.7087 115.118 63.6324 115.565C62.9385 119.534 58.6243 124.463 58.4646 124.668Z" fill="#FF5D0D"/>
<rect x="37.2266" y="94.8374" width="42.4385" height="42.6623" rx="3.12789" stroke="#E3E8E8" shape-rendering="crispEdges"/>
</g>
<g filter="url(#filter1_d_2967_4217)">
<rect x="76.1465" y="19" width="43.4385" height="43.6623" rx="3.62789" fill="white" shape-rendering="crispEdges"/>
<path d="M105.614 37.5965C105.496 37.688 103.414 38.861 103.414 41.4694C103.414 44.4864 106.063 45.5537 106.142 45.5801C106.13 45.6452 105.722 47.0418 104.746 48.4649C103.876 49.7173 102.967 50.9676 101.584 50.9676C100.202 50.9676 99.8463 50.1645 98.2503 50.1645C96.6951 50.1645 96.1421 50.994 94.8776 50.994C93.6131 50.994 92.7308 49.8352 91.7163 48.4121C90.5412 46.7409 89.5918 44.1448 89.5918 41.6808C89.5918 37.7287 92.1615 35.6326 94.6906 35.6326C96.0344 35.6326 97.1546 36.515 97.9983 36.515C98.8013 36.515 100.054 35.5798 101.582 35.5798C102.162 35.5798 104.244 35.6326 105.614 37.5965ZM100.857 33.9066C101.489 33.1564 101.936 32.1155 101.936 31.0746C101.936 30.9303 101.924 30.7839 101.898 30.666C100.869 30.7046 99.645 31.3511 98.907 32.207C98.3276 32.8657 97.7868 33.9066 97.7868 34.9617C97.7868 35.1203 97.8133 35.2789 97.8255 35.3297C97.8905 35.3419 97.9962 35.3561 98.1019 35.3561C99.0249 35.3561 100.186 34.7381 100.857 33.9066Z" fill="black"/>
<rect x="76.6465" y="19.5" width="42.4385" height="42.6623" rx="3.12789" stroke="#E3E8E8" shape-rendering="crispEdges"/>
</g>
<g filter="url(#filter2_d_2967_4217)">
<rect x="15" y="43.8545" width="43.4385" height="43.6623" rx="3.62789" fill="white" shape-rendering="crispEdges"/>
<path d="M35.1222 55.8339C36.378 55.6196 37.6754 55.6375 38.9312 55.8874C39.5502 55.9946 40.1215 56.2922 40.6572 56.6016C41.2643 56.9647 41.8832 57.298 42.5082 57.6194C44.0139 58.6193 45.2459 60.0476 45.9482 61.726C46.347 62.6545 46.585 63.6484 46.6862 64.6542C46.9243 65.9755 46.7933 67.3444 46.3589 68.6121C46.0137 69.8679 45.2221 70.9154 44.5853 72.0282C44.496 72.177 44.371 72.3079 44.2579 72.4448C43.4366 73.4329 42.4665 74.3257 41.2643 74.8196C41.3178 74.7482 41.3476 74.6709 41.3595 74.5875C41.2226 74.6173 41.0857 74.6531 40.9488 74.6948C41.0262 74.5936 41.1452 74.5399 41.2524 74.4685C41.6452 74.2126 42.0201 73.9328 42.3772 73.6293C42.4367 73.5757 42.5201 73.546 42.5439 73.4627C42.401 73.5222 42.3118 73.6591 42.1808 73.7424C40.2941 75.1053 37.9313 75.8552 35.5983 75.6529C33.1938 75.4565 30.9024 74.2899 29.2955 72.4926C28.1825 71.2606 27.3731 69.7548 26.9624 68.1478C26.4744 66.3028 26.528 64.315 27.1469 62.5057C27.504 61.4582 28.0278 60.4643 28.7301 59.6072C29.8311 58.2324 31.2417 57.0778 32.8665 56.3814C33.6164 56.185 34.3544 55.9589 35.1222 55.8339ZM35.2412 56.3993C33.5331 56.7028 31.9261 57.5122 30.6227 58.655C29.2241 59.8751 28.1647 61.482 27.6052 63.2496C27.4029 64.2555 27.1886 65.2792 27.2005 66.3088C27.4148 67.8384 27.879 69.362 28.7479 70.6535C29.3431 71.5462 30.1347 72.3021 31.0274 72.8854C31.075 72.9151 31.1286 72.9389 31.1762 72.9568C30.6525 72.5878 30.2061 72.1295 29.7478 71.6831C28.2599 70.1774 27.4267 68.0645 27.4326 65.9517C27.4207 64.1424 27.9921 62.339 29.0039 60.8392C29.4383 60.3928 29.73 59.8334 30.1466 59.3632C31.5214 58.0479 33.2712 57.1492 35.1103 56.685C37.116 56.3874 39.205 56.7266 41.0321 57.6015C42.7581 58.4228 44.2579 59.7382 45.2221 61.3927C45.9601 62.6426 46.3648 64.0829 46.4005 65.5291C46.4243 64.9994 46.472 64.4519 46.3172 63.9341C46.1268 63.1485 45.9482 62.345 45.5792 61.6248C44.9186 60.5178 44.2401 59.387 43.27 58.524C42.532 57.8693 41.669 57.3635 40.7524 57.0004C39.9549 56.7861 39.1514 56.5957 38.348 56.3933C37.3243 56.2088 36.2649 56.2207 35.2412 56.3993ZM35.4793 57.8039C33.9199 58.1848 32.4856 58.9883 31.2595 60.006C30.9084 60.3393 30.5751 60.7023 30.3846 61.1547C30.343 61.2558 30.3192 61.3689 30.2537 61.4641C30.2716 61.4641 30.3013 61.4582 30.3192 61.4522C30.6584 60.9821 31.0155 60.5238 31.444 60.131C32.6522 59.0061 34.2592 58.3514 35.8899 58.2145C37.729 58.0479 39.6097 58.5062 41.169 59.4763C41.7047 59.7798 42.2046 60.1429 42.6331 60.5892C43.395 61.3749 43.9425 62.3688 44.2579 63.4163C44.5912 64.3804 44.865 65.4041 44.7341 66.4338C44.5615 67.523 44.5377 68.6597 44.0913 69.6893C43.7104 70.2785 43.3592 70.8857 42.9664 71.4629C41.6868 72.9151 40.0442 74.1054 38.1515 74.5697C37.973 74.5875 37.8123 74.6887 37.6278 74.6709C37.8123 74.7125 37.979 74.6054 38.1635 74.6054C39.9966 74.2661 41.7047 73.3197 42.9783 71.9629C44.1687 70.6952 44.9721 69.0465 45.1864 67.3146C45.1924 66.6004 45.1864 65.8922 45.1864 65.178C45.2102 64.7733 45.0971 64.3805 45.0019 63.9876C44.5079 62.1129 43.3176 60.4583 41.7761 59.2977C41.3238 58.9644 40.8596 58.6371 40.3358 58.4228C38.8181 57.7622 37.116 57.6075 35.4793 57.8039ZM33.0629 62.9461C32.3308 63.8686 31.9797 65.0887 32.1344 66.2552C32.2237 66.9576 32.4975 67.6181 32.8665 68.2133C32.8189 68.1776 32.7236 68.1002 32.676 68.0645C32.5629 68.0229 32.5629 68.1538 32.6165 68.2133C32.9022 68.7728 33.3724 69.2132 33.8723 69.5881C34.3068 69.8262 34.7174 70.112 35.1817 70.2964C35.7352 70.4928 36.3184 70.6237 36.9077 70.5761C37.5861 70.5105 38.2765 70.3915 38.8896 70.0762C39.5264 69.7667 40.062 69.2727 40.5322 68.749C40.8655 68.4097 40.9012 67.9098 41.1512 67.5229C41.4309 67.0527 41.4845 66.4873 41.4904 65.9517C41.5023 65.3744 41.3833 64.803 41.2167 64.2555C41.1333 63.8746 40.9191 63.5413 40.7108 63.2199C40.0382 62.2736 39.0622 61.5177 37.9194 61.2499C36.1518 60.7976 34.1758 61.5118 33.0629 62.9461Z" fill="#221E1F" stroke="#221E1F" stroke-width="0.079591"/>
<path d="M33.0621 62.946C34.175 61.5116 36.151 60.7974 37.9186 61.2497C39.0613 61.5176 40.0374 62.2734 40.7099 63.2197C40.9183 63.5411 41.1325 63.8744 41.2158 64.2553C41.3825 64.8029 41.5015 65.3742 41.4896 65.9515C41.4837 66.4872 41.4301 67.0526 41.1504 67.5228C40.9004 67.9096 40.8647 68.4095 40.5314 68.7488C40.0612 69.2726 39.5256 69.7665 38.8887 70.076C38.2757 70.3915 37.5853 70.5105 36.9068 70.576C36.3176 70.6236 35.7344 70.4927 35.1809 70.2962C34.7166 70.1117 34.306 69.8261 33.8715 69.588C33.3716 69.213 32.9014 68.7727 32.6157 68.2132C32.5621 68.1537 32.5621 68.0227 32.6752 68.0644C32.7228 68.1001 32.8181 68.1775 32.8657 68.2132C32.4967 67.618 32.2229 66.9574 32.1336 66.2551C31.9789 65.0886 32.33 63.8685 33.0621 62.946ZM35.2344 61.7318C35.1749 61.7556 35.1094 61.7854 35.0618 61.833C36.3652 61.2735 37.9365 61.4164 39.1149 62.202C39.4244 62.4877 39.8291 62.6722 40.0493 63.0412C40.4838 63.6364 40.8647 64.2851 41.0492 64.9993C41.3408 66.6776 40.6028 68.481 39.222 69.4749C38.853 69.7664 38.4126 69.945 37.9781 70.1177C37.6567 70.2367 37.2996 70.2189 36.9723 70.3201C37.1866 70.326 37.4068 70.4272 37.621 70.3616C38.0019 70.2605 38.3948 70.1713 38.7519 69.9866C39.3887 69.5998 40.0374 69.1772 40.454 68.5404C40.5195 68.4274 40.6266 68.3261 40.6385 68.1893L40.6683 68.1358C40.6742 68.1298 40.6861 68.112 40.6921 68.1C40.9421 67.7489 40.9778 67.3084 41.0849 66.8979C41.3349 66.0051 41.2277 65.035 40.8647 64.1899C40.3945 63.1126 39.5018 62.2377 38.4305 61.7616C37.8412 61.4878 37.1866 61.4164 36.5497 61.3866C36.0915 61.4104 35.657 61.5652 35.2344 61.7318ZM38.4721 62.69C38.8173 62.9936 39.1387 63.315 39.4184 63.6721C39.9481 64.3446 40.3528 65.1897 40.2517 66.0646C40.1981 66.7193 39.8291 67.2847 39.4839 67.8204C39.1744 68.2846 38.8292 68.7429 38.3828 69.0939C38.1626 69.2724 37.877 69.3439 37.621 69.4688C37.383 69.5819 37.1628 69.7307 36.9068 69.7962C37.2818 69.8737 37.6508 69.7307 37.996 69.6117C38.9244 69.2486 39.6863 68.5285 40.1564 67.6595C40.5135 66.9095 40.5909 66.0526 40.4897 65.2372C40.3052 64.4992 39.9184 63.8267 39.4244 63.2494C39.222 63.047 38.9959 62.8328 38.6983 62.809C38.615 62.7793 38.5495 62.7257 38.4721 62.69ZM32.6871 66.8383C33.0978 68.4869 34.6452 69.8082 36.3593 69.8499C35.9189 69.707 35.4963 69.5225 35.0797 69.3261C34.669 69.0464 34.2048 68.8321 33.8477 68.4691C33.3061 67.9395 32.8181 67.3026 32.6455 66.5527C32.6217 66.6479 32.6574 66.7431 32.6871 66.8383Z" fill="#D7DF20" stroke="#D7DF20" stroke-width="0.079591"/>
<path d="M37.9785 70.1178C39.0617 69.8321 40.0318 69.1358 40.6389 68.1895C40.627 68.3264 40.5198 68.4275 40.4544 68.5406C40.0378 69.1774 39.389 69.6 38.7522 69.9869C38.3951 70.1715 38.0023 70.2607 37.6214 70.3618C37.4071 70.4274 37.1869 70.3261 36.9727 70.3203C37.3 70.219 37.6571 70.2368 37.9785 70.1178Z" fill="#221E1F" stroke="#221E1F" stroke-width="0.079591"/>
<rect x="15.5" y="44.3545" width="42.4385" height="42.6623" rx="3.12789" stroke="#E3E8E8" shape-rendering="crispEdges"/>
</g>
<g filter="url(#filter3_d_2967_4217)">
<rect x="92.8281" y="76.6006" width="43.4385" height="43.6623" rx="3.62789" fill="white" shape-rendering="crispEdges"/>
<path d="M105.816 100.667C105.816 101.474 106.003 102.09 106.247 102.464C106.377 102.677 106.564 102.853 106.789 102.975C107.015 103.097 107.27 103.161 107.53 103.159C108.157 103.159 108.731 103.013 109.837 101.564C110.723 100.404 111.767 98.7791 112.471 97.7529L113.66 96.0231C114.487 94.8217 115.442 93.4862 116.54 92.578C117.435 91.8421 118.401 91.4316 119.373 91.4316C121.005 91.4316 122.559 92.3266 123.749 94.0051C125.051 95.8435 125.685 98.159 125.685 100.548C125.685 101.969 125.389 103.013 124.886 103.837C124.4 104.635 123.449 105.432 121.854 105.432V103.159C123.22 103.159 123.558 101.972 123.558 100.613C123.558 98.6765 123.081 96.5273 122.03 94.9917C121.284 93.9025 120.318 93.237 119.254 93.237C118.104 93.237 117.178 94.0579 116.138 95.5217C115.585 96.2994 115.017 97.2471 114.38 98.3166L113.678 99.4893C112.269 101.855 111.912 102.393 111.207 103.283C109.974 104.845 108.919 105.432 107.53 105.432C105.882 105.432 104.841 104.757 104.199 103.739C103.669 102.91 103.41 101.822 103.41 100.583L105.816 100.667Z" fill="#0081FB"/>
<path d="M105.307 94.1657C106.41 92.5568 108.001 91.4316 109.827 91.4316C110.884 91.4316 111.935 91.7248 113.033 92.5758C114.233 93.5031 115.511 95.0299 117.109 97.5462L117.681 98.4492C119.063 100.628 119.85 101.748 120.31 102.277C120.901 102.956 121.316 103.156 121.854 103.156C123.219 103.156 123.558 101.969 123.558 100.61L125.68 100.547C125.68 101.968 125.384 103.011 124.881 103.836C124.4 104.635 123.449 105.432 121.854 105.432C120.863 105.432 119.984 105.228 119.013 104.361C118.266 103.695 117.393 102.513 116.722 101.45L114.724 98.2924C113.722 96.7077 112.803 95.5261 112.271 94.9939C111.697 94.4156 110.962 93.7208 109.788 93.7208C108.838 93.7208 108.031 94.3519 107.355 95.3172L105.307 94.1657Z" fill="url(#paint0_linear_2967_4217)"/>
<path d="M109.789 93.7208C108.838 93.7208 108.031 94.3518 107.356 95.3172C106.401 96.6813 105.816 98.7131 105.816 100.667C105.816 101.474 106.003 102.09 106.247 102.464L104.196 103.739C103.669 102.91 103.41 101.822 103.41 100.583C103.41 98.329 104.064 95.9798 105.307 94.1657C106.41 92.5568 108.002 91.4316 109.827 91.4316L109.789 93.7208Z" fill="url(#paint1_linear_2967_4217)"/>
<rect x="93.3281" y="77.1006" width="42.4385" height="42.6623" rx="3.12789" stroke="#E3E8E8" shape-rendering="crispEdges"/>
</g>
<g filter="url(#filter4_d_2967_4217)">
<rect x="53.002" y="57.4985" width="43.4385" height="43.6623" rx="3.62789" fill="white" shape-rendering="crispEdges"/>
<path d="M69.7728 77.6162C70.488 75.449 72.5222 73.8928 74.9374 73.8928C76.2348 73.8928 77.4029 74.3528 78.3265 75.104L80.9969 72.43C79.3688 71.0068 77.2771 70.1299 74.9338 70.1299C71.3074 70.1299 68.1842 72.2 66.6855 75.2298L69.7728 77.6162Z" fill="#EA4335"/>
<path d="M78.0335 83.9405C77.1961 84.4796 76.1358 84.7671 74.9354 84.7671C72.531 84.7671 70.504 83.2217 69.7816 81.0688L66.6836 83.4193C68.1823 86.4563 71.3055 88.53 74.9354 88.53C77.1853 88.53 79.3345 87.7321 80.941 86.2298L78.0335 83.9405Z" fill="#34A853"/>
<path d="M80.9353 86.2309C82.6173 84.6603 83.7098 82.3242 83.7098 79.3304C83.7098 78.7877 83.6272 78.2019 83.5014 77.6592H74.9297V81.2137H79.8643C79.6199 82.4105 78.9658 83.3341 78.0277 83.9415L80.9353 86.2309Z" fill="#4A90E2"/>
<path d="M69.7773 81.0698C69.594 80.5235 69.4934 79.9412 69.4934 79.3303C69.4934 78.7301 69.5904 78.155 69.7665 77.6159L66.6793 75.2295C66.0647 76.4622 65.7305 77.8531 65.7305 79.3303C65.7305 80.8002 66.0719 82.1911 66.6793 83.4202L69.7773 81.0698Z" fill="#FBBC05"/>
<rect x="53.502" y="57.9985" width="42.4385" height="42.6623" rx="3.12789" stroke="#E3E8E8" shape-rendering="crispEdges"/>
</g>
<defs>
<filter id="filter0_d_2967_4217" x="31.8894" y="91.9188" width="53.1138" height="53.3365" filterUnits="userSpaceOnUse" color-interpolation-filters="sRGB">
<feFlood flood-opacity="0" result="BackgroundImageFix"/>
<feColorMatrix in="SourceAlpha" type="matrix" values="0 0 0 0 0 0 0 0 0 0 0 0 0 0 0 0 0 0 127 0" result="hardAlpha"/>
<feOffset dy="2.41859"/>
<feGaussianBlur stdDeviation="2.41859"/>
<feComposite in2="hardAlpha" operator="out"/>
<feColorMatrix type="matrix" values="0 0 0 0 0 0 0 0 0 0 0 0 0 0 0 0 0 0 0.2 0"/>
<feBlend mode="normal" in2="BackgroundImageFix" result="effect1_dropShadow_2967_4217"/>
<feBlend mode="normal" in="SourceGraphic" in2="effect1_dropShadow_2967_4217" result="shape"/>
</filter>
<filter id="filter1_d_2967_4217" x="71.3093" y="16.5814" width="53.1138" height="53.3365" filterUnits="userSpaceOnUse" color-interpolation-filters="sRGB">
<feFlood flood-opacity="0" result="BackgroundImageFix"/>
<feColorMatrix in="SourceAlpha" type="matrix" values="0 0 0 0 0 0 0 0 0 0 0 0 0 0 0 0 0 0 127 0" result="hardAlpha"/>
<feOffset dy="2.41859"/>
<feGaussianBlur stdDeviation="2.41859"/>
<feComposite in2="hardAlpha" operator="out"/>
<feColorMatrix type="matrix" values="0 0 0 0 0 0 0 0 0 0 0 0 0 0 0 0 0 0 0.2 0"/>
<feBlend mode="normal" in2="BackgroundImageFix" result="effect1_dropShadow_2967_4217"/>
<feBlend mode="normal" in="SourceGraphic" in2="effect1_dropShadow_2967_4217" result="shape"/>
</filter>
<filter id="filter2_d_2967_4217" x="10.1628" y="41.4359" width="53.1138" height="53.3365" filterUnits="userSpaceOnUse" color-interpolation-filters="sRGB">
<feFlood flood-opacity="0" result="BackgroundImageFix"/>
<feColorMatrix in="SourceAlpha" type="matrix" values="0 0 0 0 0 0 0 0 0 0 0 0 0 0 0 0 0 0 127 0" result="hardAlpha"/>
<feOffset dy="2.41859"/>
<feGaussianBlur stdDeviation="2.41859"/>
<feComposite in2="hardAlpha" operator="out"/>
<feColorMatrix type="matrix" values="0 0 0 0 0 0 0 0 0 0 0 0 0 0 0 0 0 0 0.2 0"/>
<feBlend mode="normal" in2="BackgroundImageFix" result="effect1_dropShadow_2967_4217"/>
<feBlend mode="normal" in="SourceGraphic" in2="effect1_dropShadow_2967_4217" result="shape"/>
</filter>
<filter id="filter3_d_2967_4217" x="87.9909" y="74.182" width="53.1138" height="53.3365" filterUnits="userSpaceOnUse" color-interpolation-filters="sRGB">
<feFlood flood-opacity="0" result="BackgroundImageFix"/>
<feColorMatrix in="SourceAlpha" type="matrix" values="0 0 0 0 0 0 0 0 0 0 0 0 0 0 0 0 0 0 127 0" result="hardAlpha"/>
<feOffset dy="2.41859"/>
<feGaussianBlur stdDeviation="2.41859"/>
<feComposite in2="hardAlpha" operator="out"/>
<feColorMatrix type="matrix" values="0 0 0 0 0 0 0 0 0 0 0 0 0 0 0 0 0 0 0.2 0"/>
<feBlend mode="normal" in2="BackgroundImageFix" result="effect1_dropShadow_2967_4217"/>
<feBlend mode="normal" in="SourceGraphic" in2="effect1_dropShadow_2967_4217" result="shape"/>
</filter>
<filter id="filter4_d_2967_4217" x="48.1648" y="55.0799" width="53.1138" height="53.3365" filterUnits="userSpaceOnUse" color-interpolation-filters="sRGB">
<feFlood flood-opacity="0" result="BackgroundImageFix"/>
<feColorMatrix in="SourceAlpha" type="matrix" values="0 0 0 0 0 0 0 0 0 0 0 0 0 0 0 0 0 0 127 0" result="hardAlpha"/>
<feOffset dy="2.41859"/>
<feGaussianBlur stdDeviation="2.41859"/>
<feComposite in2="hardAlpha" operator="out"/>
<feColorMatrix type="matrix" values="0 0 0 0 0 0 0 0 0 0 0 0 0 0 0 0 0 0 0.2 0"/>
<feBlend mode="normal" in2="BackgroundImageFix" result="effect1_dropShadow_2967_4217"/>
<feBlend mode="normal" in="SourceGraphic" in2="effect1_dropShadow_2967_4217" result="shape"/>
</filter>
<linearGradient id="paint0_linear_2967_4217" x1="108.238" y1="98.0688" x2="123.57" y2="98.887" gradientUnits="userSpaceOnUse">
<stop stop-color="#0064E1"/>
<stop offset="0.4" stop-color="#0064E1"/>
<stop offset="0.83" stop-color="#0073EE"/>
<stop offset="1" stop-color="#0082FB"/>
</linearGradient>
<linearGradient id="paint1_linear_2967_4217" x1="106.618" y1="101.62" x2="106.618" y2="96.2693" gradientUnits="userSpaceOnUse">
<stop stop-color="#0082FB"/>
<stop offset="1" stop-color="#0064E0"/>
</linearGradient>
</defs>
</svg>
