<svg xmlns="http://www.w3.org/2000/svg" width="17" height="16" viewBox="0 0 17 16" fill="none">
  <path d="M9.63054 1.3335H5.79349C5.67384 1.3335 5.61402 1.3335 5.5612 1.35171C5.51449 1.36783 5.47195 1.39412 5.43665 1.42869C5.39673 1.46778 5.36998 1.5213 5.31647 1.62832L2.51647 7.22831C2.38868 7.48389 2.32479 7.61168 2.34013 7.71555C2.35354 7.80625 2.40371 7.88743 2.47884 7.93998C2.56489 8.00016 2.70776 8.00016 2.99349 8.00016H7.13054L5.13054 14.6668L13.2593 6.23703C13.5335 5.95263 13.6706 5.81043 13.6787 5.68875C13.6856 5.58313 13.642 5.48049 13.5611 5.41218C13.468 5.3335 13.2704 5.3335 12.8754 5.3335H8.13054L9.63054 1.3335Z" stroke="#506B6A" stroke-linecap="round" stroke-linejoin="round"/>
</svg>